<svg width="59" height="40" viewBox="0 0 59 40" fill="none" xmlns="http://www.w3.org/2000/svg">
<rect width="58.5462" height="40" rx="6" fill="#5DDEFA" fill-opacity="0.1"/>
<path d="M37.6084 19.6719H20.9284C20.8674 19.6724 20.8066 19.6786 20.7468 19.6904L20.669 19.7164C20.6359 19.7228 20.6036 19.7328 20.5726 19.746C20.5431 19.7586 20.5146 19.7735 20.4873 19.7905C20.4616 19.8006 20.4367 19.813 20.4132 19.8276C20.3119 19.8966 20.2251 19.9848 20.1574 20.087L20.1167 20.1574C20.0996 20.1859 20.0848 20.2157 20.0722 20.2464C20.0722 20.2761 20.0722 20.3094 20.0425 20.3391C20.0334 20.3645 20.026 20.3905 20.0203 20.4169C19.9932 20.539 19.9932 20.6655 20.0203 20.7876C20.026 20.8152 20.0334 20.8424 20.0425 20.8691C20.0425 20.8988 20.0611 20.9321 20.0722 20.9618C20.0833 20.9914 20.1018 21.0211 20.1167 21.0508L20.1574 21.1212C20.1895 21.1729 20.2282 21.2202 20.2724 21.262L27.7561 28.7384C27.9306 28.9074 28.1646 29.0012 28.4076 28.9994C28.6505 28.9977 28.8831 28.9005 29.0552 28.729C29.2272 28.5574 29.325 28.3251 29.3275 28.0821C29.3299 27.8391 29.2368 27.6049 29.0683 27.4299L23.1636 21.5252H37.6195C37.8653 21.5252 38.101 21.4276 38.2748 21.2538C38.4486 21.08 38.5462 20.8443 38.5462 20.5985C38.5462 20.3528 38.4486 20.1171 38.2748 19.9433C38.101 19.7695 37.8653 19.6719 37.6195 19.6719H37.6084Z" fill="#5DDEFA"/>
<path d="M27.8231 11.6552L22.1277 17.3506C21.7658 17.7125 21.7658 18.2992 22.1277 18.6611C22.4895 19.023 23.0763 19.023 23.4382 18.6611L29.1336 12.9657C29.4955 12.6038 29.4955 12.017 29.1336 11.6552C28.7717 11.2933 28.185 11.2933 27.8231 11.6552Z" fill="#5DDEFA"/>
</svg>
