<svg width="14" height="12" viewBox="0 0 14 12" fill="none" xmlns="http://www.w3.org/2000/svg">
<path fill-rule="evenodd" clip-rule="evenodd" d="M2.33398 0.666748H11.6673C12.7719 0.666748 13.6673 1.56218 13.6673 2.66675V9.33342C13.6673 10.438 12.7719 11.3334 11.6673 11.3334H2.33398C1.22941 11.3334 0.333984 10.438 0.333984 9.33341V2.66675C0.333984 1.56218 1.22942 0.666748 2.33398 0.666748ZM2.52925 7.97318C2.2689 8.23353 2.2689 8.65564 2.52925 8.91599C2.7896 9.17634 3.21171 9.17634 3.47206 8.91599L5.7125 6.67555L6.57896 7.38316C6.85123 7.60551 7.24935 7.57826 7.48878 7.32088L9.66921 4.97691L10.5143 5.87833C10.7661 6.14693 11.188 6.16054 11.4566 5.90872C11.7252 5.6569 11.7388 5.23501 11.487 4.9664L10.1537 3.54418C10.0273 3.40942 9.85075 3.33312 9.66602 3.33348C9.4813 3.33384 9.30501 3.41082 9.17919 3.54607L6.93824 5.9551L6.08901 5.26157C5.82391 5.04507 5.43793 5.06449 5.19591 5.30652L2.52925 7.97318Z" fill="#00F0FF"/>
</svg>
